<?xml version="1.0" standalone="no"?>
<!DOCTYPE svg PUBLIC "-//W3C//DTD SVG 20010904//EN"
 "http://www.w3.org/TR/2001/REC-SVG-20010904/DTD/svg10.dtd">
<svg version="1.0" xmlns="http://www.w3.org/2000/svg"
 width="394.000000pt" height="274.000000pt" viewBox="0 0 394.000000 274.000000"
 preserveAspectRatio="xMidYMid meet">
<metadata>
Created by potrace 1.16, written by Peter Selinger 2001-2019
</metadata>
<g transform="translate(0.000000,274.000000) scale(0.100000,-0.100000)"
fill="#000000" stroke="none">
<path d="M1490 2219 c-66 -13 -130 -57 -165 -113 l-30 -49 -3 -696 -2 -695 25
-52 c27 -54 69 -93 133 -122 34 -15 98 -17 712 -17 l675 0 58 29 c38 18 69 43
88 69 60 83 60 80 57 798 -3 639 -3 655 -24 699 -26 58 -76 108 -134 134 -44
21 -59 21 -695 23 -357 0 -670 -3 -695 -8z m1335 -204 l25 -24 0 -641 0 -641
-25 -24 -24 -25 -641 0 -641 0 -24 25 -25 24 0 641 0 641 25 24 24 25 641 0
641 0 24 -25z"/>
<path d="M1790 1819 c-127 -38 -134 -48 -126 -157 33 -404 326 -728 721 -797
190 -33 206 -24 249 135 37 143 36 146 -104 205 -134 56 -161 57 -207 8 -19
-21 -42 -48 -50 -60 l-15 -23 -51 28 c-72 38 -185 148 -229 222 l-37 62 60 49
c53 45 59 54 59 87 0 44 -81 238 -107 258 -25 19 -54 16 -163 -17z"/>
</g>
</svg>
